<svg xmlns="http://www.w3.org/2000/svg" enable-background="new 0 0 512 512" viewBox="0 0 512 512" id="responsive-design"><g><g><path d="M103.381,64.173c-4.848,0-8.793,3.972-8.793,8.85c0,4.851,3.945,8.795,8.793,8.795c4.88,0,8.85-3.945,8.85-8.795
			C112.231,68.145,108.261,64.173,103.381,64.173z"></path><path d="M427.807,63.485c0-24.256-19.711-44.013-43.966-44.013H80.251c-24.256,0-44.013,19.757-44.013,44.013v53.752h391.568
			V63.485z M103.394,91.08c-9.971,0-18.087-8.116-18.087-18.04c0-10.018,8.116-18.134,18.087-18.134s18.134,8.116,18.134,18.134
			C121.527,82.964,113.365,91.08,103.394,91.08z M154.734,91.08c-9.971,0-18.087-8.116-18.087-18.04
			c0-10.018,8.116-18.134,18.087-18.134s18.134,8.116,18.134,18.134C172.868,82.964,164.705,91.08,154.734,91.08z M206.074,91.08
			c-9.971,0-18.087-8.116-18.087-18.04c0-10.018,8.116-18.134,18.087-18.134c9.971,0,18.134,8.116,18.134,18.134
			C224.208,82.964,216.045,91.08,206.074,91.08z M374.148,77.631h-81.671c-2.551,0-4.638-2.087-4.638-4.638s2.087-4.638,4.638-4.638
			h81.671c2.551,0,4.638,2.087,4.638,4.638S376.698,77.631,374.148,77.631z"></path><path d="M154.727 64.173c-4.848 0-8.793 3.972-8.793 8.85 0 4.851 3.945 8.795 8.793 8.795 4.88 0 8.85-3.945 8.85-8.795C163.577 68.145 159.607 64.173 154.727 64.173zM82.709 297.137V172.52c0-2.551 2.087-4.638 4.638-4.638h289.398c2.551 0 4.638 2.087 4.638 4.638v56.581h46.424V126.513H36.238v240.006c0 24.302 19.757 44.013 44.013 44.013h232.492v-63.909h-222.8c-2.551 0-4.638-2.087-4.638-4.638 0-2.597 2.087-4.638 4.638-4.638h222.8v-35.572H87.347C84.796 301.775 82.709 299.688 82.709 297.137z"></path><path d="M372.107 229.101v-51.943H91.985v115.342h220.759v-32.325c0-17.114 13.96-31.074 31.073-31.074H372.107zM206.071 64.173c-4.848 0-8.793 3.972-8.793 8.85 0 4.851 3.945 8.795 8.793 8.795 4.88 0 8.85-3.945 8.85-8.795C214.921 68.145 210.952 64.173 206.071 64.173z"></path><path d="M453.964,238.376H343.817c-12.012,0-21.798,9.786-21.798,21.798V470.73c0,1.53,0.185,2.968,0.464,4.406
			c2.041,9.925,10.806,17.392,21.334,17.392h110.147c6.029,0,11.455-2.458,15.397-6.4c3.942-3.942,6.4-9.368,6.4-15.397V260.174
			C475.762,248.162,465.976,238.376,453.964,238.376z M466.486,429.964c0,6.91-5.612,12.522-12.522,12.522H343.817
			c-6.911,0-12.476-5.612-12.522-12.475V260.174c0-6.91,5.612-12.522,12.522-12.522h110.147c6.91,0,12.522,5.612,12.522,12.522
			V429.964z"></path><path d="M442.138 282.342h-86.495c-2.551 0-4.638 2.087-4.638 4.638v59.225c0 2.551 2.087 4.638 4.638 4.638h86.495c2.551 0 4.638-2.087 4.638-4.638V286.98C446.775 284.43 444.689 282.342 442.138 282.342zM442.128 387.595h-86.467c-2.561 0-4.638 2.074-4.638 4.638 0 2.563 2.077 4.638 4.638 4.638h86.467c2.561 0 4.638-2.074 4.638-4.638C446.765 389.669 444.689 387.595 442.128 387.595z"></path></g></g></svg>