<svg xmlns="http://www.w3.org/2000/svg" width="32" height="32" id="seo"><path style="text-indent:0;text-align:start;line-height:normal;text-transform:none;block-progression:tb;marker:none;-inkscape-font-specification:Sans" d="M5.031 3h22v3h-22zm1.5 1a.5.5 0 1 0 0 1 .5.5 0 0 0 0-1zm2 0a.5.5 0 1 0 0 1 .5.5 0 0 0 0-1zm2 0a.5.5 0 1 0 0 1 .5.5 0 0 0 0-1zm-5.5 3h22v18h-.312l-2.438-2.438a1.232 1.232 0 0 0-1.218-.312l-1.47-1.438c1.994-2.365 1.89-5.86-.312-8.062-2.326-2.326-6.114-2.323-8.468.031-2.355 2.355-2.389 6.174-.063 8.5.08.081.166.144.25.219h-1.969a.5.5 0 0 0-.156 0 .515.515 0 0 0-.344.5v2c0 .262.238.5.5.5h2a.52.52 0 0 0 .5-.5v-2a.494.494 0 0 0-.031-.063c.325.23.675.407 1.031.563V24c0 .262.238.5.5.5h2a.52.52 0 0 0 .5-.5v-1.031c.341-.035.667-.126 1-.219V24c0 .262.238.5.5.5h2a.52.52 0 0 0 .5-.5v-1.781l.75.75c-.162.433-.047.956.282 1.281l.75.75H5.03zm12.032 5a4.943 4.943 0 0 1 3.53 1.438c1.506 1.504 1.797 3.747.938 5.593V17a.52.52 0 0 0-.5-.5h-2a.5.5 0 0 0-.156 0 .515.515 0 0 0-.344.5v4.719c-.33.113-.658.176-1 .218V15a.52.52 0 0 0-.5-.5h-2a.5.5 0 0 0-.156 0 .515.515 0 0 0-.344.5v6.375c-.387-.215-.765-.452-1.094-.781-1.937-1.938-1.884-5.116.094-7.094.99-.99 2.253-1.494 3.531-1.5zm-1.532 3.5h1v6.469a4.874 4.874 0 0 1-1-.188zm4 2h1v3c-.3.3-.655.54-1 .75zm-12.656 1a.515.515 0 0 0-.344.5v5c0 .262.238.5.5.5h2a.52.52 0 0 0 .5-.5v-5a.52.52 0 0 0-.5-.5h-2a.5.5 0 0 0-.156 0zm.656 1h1v4h-1zm13 2.313V23.5h-1v-1.094c.35-.166.681-.358 1-.593zm-9 .687h1v1h-1zm4 .344c.332.079.66.104 1 .125v.531h-1z" color="#000" font-family="Sans" font-weight="400" overflow="visible"></path></svg>