<svg xmlns="http://www.w3.org/2000/svg" width="32" height="32" id="web"><path style="text-indent:0;text-align:start;line-height:normal;text-transform:none;block-progression:tb;marker:none;-inkscape-font-specification:Sans" d="M3 3h26v3H3zm1.5 1a.5.5 0 1 0 0 1 .5.5 0 0 0 0-1zm2 0a.5.5 0 1 0 0 1 .5.5 0 0 0 0-1zm2 0a.5.5 0 1 0 0 1 .5.5 0 0 0 0-1zM3 7h26v22H3zm13 4c-3.86 0-7 3.14-7 7s3.14 7 7 7 7-3.14 7-7-3.14-7-7-7zm-.5 1.094v2.156h-2c.173-.605.382-1.224.625-1.844.441-.146.89-.27 1.375-.312zm1 0c.461.04.891.146 1.313.281.247.63.45 1.26.625 1.875H16.5zm-3.625.875c-.146.43-.293.853-.406 1.281h-1.063a5.782 5.782 0 0 1 1.469-1.281zm6.219 0c.57.348 1.073.758 1.5 1.281H19.5c-.114-.428-.26-.851-.406-1.281zM10.75 15.25h1.5a15.296 15.296 0 0 0-.281 2.25h-1.875a5.88 5.88 0 0 1 .656-2.25zm2.5 0h2.25v2.25h-2.563c.044-.746.148-1.499.313-2.25zm3.25 0h2.188c.165.751.269 1.504.312 2.25h-2.5zm3.219 0h1.531a5.88 5.88 0 0 1 .656 2.25H20a15.296 15.296 0 0 0-.281-2.25zm-9.625 3.25h1.844c.012.74.085 1.5.218 2.25H10.75a5.789 5.789 0 0 1-.656-2.25zm2.812 0H15.5v2.25h-2.344a12.843 12.843 0 0 1-.25-2.25zm3.594 0h2.531c-.014.748-.1 1.489-.25 2.25H16.5zm3.531 0h1.875a5.788 5.788 0 0 1-.656 2.25h-1.438c.133-.75.207-1.51.22-2.25zm-8.593 3.25h.937c.099.396.209.786.344 1.188a6.186 6.186 0 0 1-1.281-1.188zm1.968 0H15.5v2.156a5.793 5.793 0 0 1-1.469-.312 15.576 15.576 0 0 1-.625-1.844zm3.094 0h2.031a15.54 15.54 0 0 1-.625 1.875 5.81 5.81 0 0 1-1.406.281zm3.094 0h.968c-.373.45-.799.861-1.28 1.188.133-.398.213-.795.312-1.188z" color="#000" font-family="Sans" font-weight="400" overflow="visible"></path></svg>